<svg width="131" height="131" viewBox="0 0 131 131" fill="none" xmlns="http://www.w3.org/2000/svg">
<path d="M81.875 47.0781H77.7812V57.3125H81.875V47.0781Z" fill="white"/>
<path d="M90.0625 47.0781H85.9688V57.3125H90.0625V47.0781Z" fill="white"/>
<path d="M81.875 61.4062H77.7812V65.5H81.875V61.4062Z" fill="white"/>
<path d="M90.0625 61.4062H85.9688V65.5H90.0625V61.4062Z" fill="white"/>
<path d="M67.5469 69.5938H63.4531V73.6875H67.5469V69.5938Z" fill="white"/>
<path d="M57.3125 110.531H53.2188V114.625H57.3125V110.531Z" fill="white"/>
<path d="M90.0625 69.5938H85.9688V73.6875H90.0625V69.5938Z" fill="white"/>
<path d="M81.875 77.7812H77.7812V81.875H81.875V77.7812Z" fill="white"/>
<path d="M90.0625 77.7812H85.9688V81.875H90.0625V77.7812Z" fill="white"/>
<path d="M4.09375 4.09375H10.2344V0H2.04688C0.917 0 0 0.917 0 2.04688V10.2344H4.09375V4.09375Z" fill="white"/>
<path d="M128.953 0H120.766V4.09375H126.906V10.2344H131V2.04688C131 0.917 130.083 0 128.953 0Z" fill="white"/>
<path d="M4.09375 120.766H0V128.953C0 130.083 0.917 131 2.04688 131H10.2344V126.906H4.09375V120.766Z" fill="white"/>
<path d="M126.906 126.906H120.766V131H128.953C130.083 131 131 130.083 131 128.953V120.766H126.906V126.906Z" fill="white"/>
<path d="M8.1875 10.2344V34.7969C8.1875 35.9268 9.1045 36.8438 10.2344 36.8438H34.7969C35.9268 36.8438 36.8438 35.9268 36.8438 34.7969V10.2344C36.8438 9.1045 35.9268 8.1875 34.7969 8.1875H10.2344C9.1045 8.1875 8.1875 9.1045 8.1875 10.2344ZM12.2812 12.2812H32.75V32.75H12.2812V12.2812Z" fill="white"/>
<path d="M26.6094 16.375H18.4219C17.292 16.375 16.375 17.292 16.375 18.4219V26.6094C16.375 27.7393 17.292 28.6562 18.4219 28.6562H26.6094C27.7393 28.6562 28.6562 27.7393 28.6562 26.6094V18.4219C28.6562 17.292 27.7393 16.375 26.6094 16.375ZM24.5625 24.5625H20.4688V20.4688H24.5625V24.5625Z" fill="white"/>
<path d="M96.2031 36.8438H120.766C121.896 36.8438 122.812 35.9268 122.812 34.7969V10.2344C122.812 9.1045 121.896 8.1875 120.766 8.1875H96.2031C95.0733 8.1875 94.1562 9.1045 94.1562 10.2344V34.7969C94.1562 35.9268 95.0733 36.8438 96.2031 36.8438ZM98.25 12.2812H118.719V32.75H98.25V12.2812Z" fill="white"/>
<path d="M112.578 16.375H104.391C103.261 16.375 102.344 17.292 102.344 18.4219V26.6094C102.344 27.7393 103.261 28.6562 104.391 28.6562H112.578C113.708 28.6562 114.625 27.7393 114.625 26.6094V18.4219C114.625 17.292 113.708 16.375 112.578 16.375ZM110.531 24.5625H106.438V20.4688H110.531V24.5625Z" fill="white"/>
<path d="M34.7969 94.1562H10.2344C9.1045 94.1562 8.1875 95.0733 8.1875 96.2031V120.766C8.1875 121.896 9.1045 122.812 10.2344 122.812H34.7969C35.9268 122.812 36.8438 121.896 36.8438 120.766V96.2031C36.8438 95.0733 35.9268 94.1562 34.7969 94.1562ZM32.75 118.719H12.2812V98.25H32.75V118.719Z" fill="white"/>
<path d="M18.4219 114.625H26.6094C27.7393 114.625 28.6562 113.708 28.6562 112.578V104.391C28.6562 103.261 27.7393 102.344 26.6094 102.344H18.4219C17.292 102.344 16.375 103.261 16.375 104.391V112.578C16.375 113.708 17.292 114.625 18.4219 114.625ZM20.4688 106.438H24.5625V110.531H20.4688V106.438Z" fill="white"/>
<path d="M90.0625 38.8906H75.7344V14.3281H71.6406V40.9375C71.6406 42.0674 72.5576 42.9844 73.6875 42.9844H90.0625V38.8906Z" fill="white"/>
<path d="M59.3594 24.5625H45.0312V28.6562H59.3594V24.5625Z" fill="white"/>
<path d="M67.5469 16.375H53.2188V20.4688H67.5469V16.375Z" fill="white"/>
<path d="M12.2812 38.8906H8.1875V57.3125H12.2812V38.8906Z" fill="white"/>
<path d="M36.8438 51.1719H16.375V55.2656H34.7969V63.4531H38.8906V53.2188C38.8906 52.0889 37.9736 51.1719 36.8438 51.1719Z" fill="white"/>
<path d="M22.5156 40.9375H18.4219V45.0312H22.5156V40.9375Z" fill="white"/>
<path d="M47.0781 36.8438H42.9844V53.2188H47.0781V36.8438Z" fill="white"/>
<path d="M61.4062 57.3125H42.9844V61.4062H61.4062V57.3125Z" fill="white"/>
<path d="M124.859 59.3594H120.766V79.8281H114.625V83.9219H122.812C123.942 83.9219 124.859 83.0049 124.859 81.875V59.3594Z" fill="white"/>
<path d="M57.3125 36.8438H53.2188V40.9375H57.3125V36.8438Z" fill="white"/>
<path d="M12.2812 67.5469H8.1875V83.9219H12.2812V67.5469Z" fill="white"/>
<path d="M26.6094 85.9688H8.1875V90.0625H26.6094V85.9688Z" fill="white"/>
<path d="M102.344 57.3125H106.438V49.125C106.438 47.9951 105.521 47.0781 104.391 47.0781H94.1562V51.1719H102.344V57.3125Z" fill="white"/>
<path d="M22.5156 67.5469H18.4219V71.6406H22.5156V67.5469Z" fill="white"/>
<path d="M45.0312 65.5H40.9375V81.875H45.0312V65.5Z" fill="white"/>
<path d="M59.3594 85.9688H40.9375V90.0625H59.3594V85.9688Z" fill="white"/>
<path d="M34.7969 77.7812H16.375V81.875H34.7969V77.7812Z" fill="white"/>
<path d="M47.0781 106.438H42.9844V114.625H47.0781V106.438Z" fill="white"/>
<path d="M59.3594 98.25H40.9375V102.344H59.3594V98.25Z" fill="white"/>
<path d="M73.6875 90.0625V79.8281C73.6875 78.6983 72.7705 77.7812 71.6406 77.7812H51.1719V81.875H69.5938V90.0625H73.6875Z" fill="white"/>
<path d="M57.3125 65.5H53.2188V69.5938H57.3125V65.5Z" fill="white"/>
<path d="M34.7969 69.5938H30.7031V73.6875H34.7969V69.5938Z" fill="white"/>
<path d="M124.859 108.484H120.766V122.812H124.859V108.484Z" fill="white"/>
<path d="M116.672 118.719H110.531V122.812H116.672V118.719Z" fill="white"/>
<path d="M114.625 106.438H110.531V114.625H114.625V106.438Z" fill="white"/>
<path d="M124.859 90.0625C124.859 88.9326 123.942 88.0156 122.812 88.0156H100.297V92.1094H120.766V104.391H124.859V90.0625Z" fill="white"/>
<path d="M98.25 114.625V104.391C98.25 103.261 97.333 102.344 96.2031 102.344H73.6875V106.438H94.1562V114.625H98.25Z" fill="white"/>
<path d="M116.672 96.2031H102.344V100.297H116.672V96.2031Z" fill="white"/>
<path d="M55.2656 118.719H40.9375V122.812H55.2656V118.719Z" fill="white"/>
<path d="M65.5 104.391H61.4062V122.812H65.5V104.391Z" fill="white"/>
<path d="M73.6875 94.1562H65.5V98.25H73.6875V94.1562Z" fill="white"/>
<path d="M96.2031 73.6875H106.438V69.5938H98.25V57.3125H94.1562V71.6406C94.1562 72.7705 95.0733 73.6875 96.2031 73.6875Z" fill="white"/>
<path d="M112.578 61.4062H102.344V65.5H112.578V61.4062Z" fill="white"/>
<path d="M116.672 40.9375H110.531V45.0312H116.672V40.9375Z" fill="white"/>
<path d="M124.859 40.9375H120.766V51.1719H124.859V40.9375Z" fill="white"/>
<path d="M114.625 51.1719H110.531V55.2656H114.625V51.1719Z" fill="white"/>
<path d="M79.8281 34.7969H88.0156C89.1455 34.7969 90.0625 33.8799 90.0625 32.75V6.14062H85.9688V30.7031H79.8281V34.7969Z" fill="white"/>
<path d="M49.125 10.2344H79.8281V6.14062H47.0781C45.9483 6.14062 45.0312 7.05763 45.0312 8.1875V18.4219H49.125V10.2344Z" fill="white"/>
<path d="M51.1719 49.125H65.5C66.6299 49.125 67.5469 48.208 67.5469 47.0781V30.7031H63.4531V45.0312H51.1719V49.125Z" fill="white"/>
<path d="M73.6875 47.0781H69.5938V55.2656H73.6875V47.0781Z" fill="white"/>
<path d="M88.0156 110.531H73.6875V114.625H88.0156V110.531Z" fill="white"/>
<path d="M92.1094 118.719H73.6875V122.812H92.1094V118.719Z" fill="white"/>
<path d="M102.344 118.719H98.25V122.812H104.391C105.521 122.812 106.438 121.896 106.438 120.766V104.391H102.344V118.719Z" fill="white"/>
<path d="M36.8438 85.9688H32.75V90.0625H36.8438V85.9688Z" fill="white"/>
<path d="M88.0156 85.9688H79.8281V90.0625H88.0156V85.9688Z" fill="white"/>
<path d="M98.25 77.7812H94.1562V83.9219H98.25V77.7812Z" fill="white"/>
<path d="M96.2031 88.0156H92.1094V92.1094H96.2031V88.0156Z" fill="white"/>
<path d="M85.9688 94.1562H79.8281V98.25H85.9688V94.1562Z" fill="white"/>
<path d="M106.438 77.7812H102.344V81.875H106.438V77.7812Z" fill="white"/>
<path d="M116.672 69.5938H110.531V73.6875H116.672V69.5938Z" fill="white"/>
<path d="M81.875 69.5938H71.6406V73.6875H81.875V69.5938Z" fill="white"/>
<path d="M73.6875 59.3594H69.5938V65.5H73.6875V59.3594Z" fill="white"/>
</svg>
